<svg id="Layer_1" data-name="Layer 1" xmlns="http://www.w3.org/2000/svg" width="158.28" height="59.57" viewBox="0 0 158.28 59.57"><defs><style>.cls-1{fill:none;}.cls-2{fill:#ccc;}.cls-3{font-size:26.43px;fill:#f2f2f2;font-family:FrederickatheGreat-Regular, Fredericka the Great;opacity:0.8;}.cls-4{letter-spacing:-0.04em;}.cls-5{letter-spacing:0em;}.cls-6{font-family:Raleway-ExtraBold, Raleway;font-weight:700;}.cls-7{letter-spacing:0em;}</style></defs><title>TaleofTwoAdams_logo</title><path class="cls-1" d="M470.24,378.81h-6v22.43h5a10.82,10.82,0,0,0,4.53-.9,9.27,9.27,0,0,0,3.31-2.48,11,11,0,0,0,2-3.73,15,15,0,0,0,.7-4.66,15.13,15.13,0,0,0-.7-4.71,10.57,10.57,0,0,0-2-3.61,9.35,9.35,0,0,0-2.41-1.5A11.26,11.26,0,0,0,470.24,378.81Z" transform="translate(-422.72 -349.24)"/><polygon class="cls-1" points="20.53 44.34 16.29 32.28 11.88 44.34 20.53 44.34"/><polygon class="cls-1" points="83.77 44.34 79.53 32.28 75.12 44.34 83.77 44.34"/><polygon class="cls-2" points="16.29 32.28 15.62 30.38 10.52 44.34 11.88 44.34 16.29 32.28"/><polygon class="cls-2" points="19.06 23.51 32.2 58.06 25.71 58.06 26.09 59.06 33.2 59.06 19.68 23.51 19.06 23.51"/><polygon class="cls-2" points="9.37 49.2 6.11 58.06 0.38 58.06 0 59.06 7.11 59.06 10.37 50.2 22.16 50.2 21.78 49.2 9.37 49.2"/><path class="cls-2" d="M487.76,390.48a21.19,21.19,0,0,0-1.1-6.88,15.76,15.76,0,0,0-3.3-5.63c-.28-.31-.59-.59-.89-.87a15.77,15.77,0,0,1,3.2,5.5,21.19,21.19,0,0,1,1.1,6.88,20.82,20.82,0,0,1-1.23,7.34,15.66,15.66,0,0,1-3.53,5.61,15.88,15.88,0,0,1-5.53,3.61,19.53,19.53,0,0,1-7.24,1.28H457.32v1h12.92a19.53,19.53,0,0,0,7.24-1.28,15.88,15.88,0,0,0,5.53-3.61,15.66,15.66,0,0,0,3.53-5.61A20.82,20.82,0,0,0,487.76,390.48Z" transform="translate(-422.72 -349.24)"/><path class="cls-2" d="M464.23,378.81h6a11.26,11.26,0,0,1,4.48.85,9.35,9.35,0,0,1,2.41,1.5l-.08-.1a9.14,9.14,0,0,0-3.33-2.4,11.26,11.26,0,0,0-4.48-.85h-6v23.43h1Z" transform="translate(-422.72 -349.24)"/><polygon class="cls-2" points="82.3 23.51 95.44 58.06 88.96 58.06 89.33 59.06 96.44 59.06 82.92 23.51 82.3 23.51"/><polygon class="cls-2" points="72.61 49.2 69.35 58.06 63.62 58.06 63.24 59.06 70.35 59.06 73.61 50.2 85.4 50.2 85.03 49.2 72.61 49.2"/><polygon class="cls-2" points="79.53 32.28 78.87 30.38 73.76 44.34 75.12 44.34 79.53 32.28"/><polygon class="cls-2" points="115.01 42.28 105.25 23.51 104.77 23.51 114.77 42.74 115.01 42.28"/><polygon class="cls-2" points="116.67 52.06 113.39 52.06 113.92 53.06 117.67 53.06 125.83 37.44 125.83 34.53 116.67 52.06"/><polygon class="cls-2" points="103.75 58.06 97.84 58.06 97.84 59.06 104.75 59.06 104.75 36.44 103.75 34.53 103.75 58.06"/><polygon class="cls-2" points="132.75 58.06 126.83 58.06 126.83 59.06 133.75 59.06 133.75 23.51 132.75 23.51 132.75 58.06"/><path class="cls-2" d="M572.19,398a29.43,29.43,0,0,0-4.41-1.5q-2.55-.7-4.36-1.35a11.18,11.18,0,0,1-2.9-1.48l-.09-.07a5.53,5.53,0,0,0,1.09,1.07,11.18,11.18,0,0,0,2.9,1.48q1.8.65,4.36,1.35a29.43,29.43,0,0,1,4.41,1.5l.12.08A2.29,2.29,0,0,0,572.19,398Z" transform="translate(-422.72 -349.24)"/><path class="cls-2" d="M572.41,386a10.62,10.62,0,0,0-3.73-.7,5.4,5.4,0,0,0-2.85.7,2.44,2.44,0,0,0-1.15,2.25,2.18,2.18,0,0,0,.28,1.15,2.43,2.43,0,0,0,.88.8l.05,0a2.27,2.27,0,0,1-.21-1,2.44,2.44,0,0,1,1.15-2.25,5.4,5.4,0,0,1,2.85-.7,10.62,10.62,0,0,1,3.73.7,15.72,15.72,0,0,1,3.88,2.2l2.7-4.06q-.53-.47-1.09-.87l-2.62,3.93A15.72,15.72,0,0,0,572.41,386Z" transform="translate(-422.72 -349.24)"/><path class="cls-2" d="M580.42,397.67a5.6,5.6,0,0,0-1.57-1.89,5.08,5.08,0,0,1,.57.89,6.39,6.39,0,0,1,.58,2.83,7.3,7.3,0,0,1-2.85,6.08,12.3,12.3,0,0,1-7.76,2.23,20.29,20.29,0,0,1-6.46-1.05,16.35,16.35,0,0,1-4.32-2.16l-.09.15a15.77,15.77,0,0,0,5.41,3,20.29,20.29,0,0,0,6.46,1.05,12.3,12.3,0,0,0,7.76-2.23A7.3,7.3,0,0,0,581,400.5,6.39,6.39,0,0,0,580.42,397.67Z" transform="translate(-422.72 -349.24)"/><text class="cls-3" transform="translate(10.38 23.29)">tal<tspan class="cls-4" x="33.06" y="0">e </tspan><tspan class="cls-5" x="53.73" y="0">o</tspan><tspan x="68.08" y="0">f</tspan><tspan class="cls-6" x="77.32" y="0"> </tspan><tspan class="cls-7" x="83.48" y="0">two</tspan></text></svg>